<svg width="335" height="18" viewBox="0 0 335 18" fill="none" xmlns="http://www.w3.org/2000/svg">
<path d="M7.19 14.216C5.93 14.216 4.766 13.91 3.698 13.298C2.642 12.674 1.802 11.834 1.178 10.778C0.566 9.71 0.26 8.546 0.26 7.286C0.26 6.038 0.566 4.886 1.178 3.83C1.802 2.762 2.642 1.922 3.698 1.31C4.754 0.685999 5.918 0.373999 7.19 0.373999C8.45 0.373999 9.608 0.685999 10.664 1.31C11.72 1.922 12.554 2.762 13.166 3.83C13.79 4.886 14.102 6.038 14.102 7.286C14.102 8.546 13.79 9.71 13.166 10.778C12.554 11.834 11.714 12.674 10.646 13.298C9.59 13.91 8.438 14.216 7.19 14.216ZM1.664 7.286C1.664 8.306 1.91 9.236 2.402 10.076C2.894 10.916 3.56 11.582 4.4 12.074C5.24 12.566 6.17 12.812 7.19 12.812C8.198 12.812 9.122 12.566 9.962 12.074C10.814 11.582 11.486 10.916 11.978 10.076C12.47 9.236 12.716 8.306 12.716 7.286C12.716 6.278 12.47 5.354 11.978 4.514C11.486 3.662 10.814 2.99 9.962 2.498C9.122 2.006 8.198 1.76 7.19 1.76C6.17 1.76 5.24 2.006 4.4 2.498C3.56 2.99 2.894 3.662 2.402 4.514C1.91 5.354 1.664 6.278 1.664 7.286ZM3.626 7.286C3.626 6.566 3.782 5.924 4.094 5.36C4.418 4.784 4.856 4.334 5.408 4.01C5.972 3.686 6.602 3.524 7.298 3.524C8.042 3.524 8.696 3.71 9.26 4.082C9.824 4.442 10.202 4.898 10.394 5.45L9.116 6.026C8.972 5.666 8.738 5.378 8.414 5.162C8.102 4.934 7.73 4.82 7.298 4.82C6.638 4.82 6.098 5.048 5.678 5.504C5.27 5.96 5.066 6.554 5.066 7.286C5.066 8.018 5.27 8.612 5.678 9.068C6.086 9.524 6.626 9.752 7.298 9.752C7.718 9.752 8.09 9.644 8.414 9.428C8.738 9.2 8.972 8.912 9.116 8.564L10.394 9.14C10.202 9.692 9.824 10.154 9.26 10.526C8.696 10.886 8.042 11.066 7.298 11.066C6.602 11.066 5.972 10.904 5.408 10.58C4.856 10.256 4.418 9.806 4.094 9.23C3.782 8.654 3.626 8.006 3.626 7.286ZM18.7286 12.776L22.4366 8.762L22.7606 8.42C23.5286 7.592 24.0806 6.974 24.4166 6.566C24.7646 6.146 25.0226 5.756 25.1906 5.396C25.3706 5.024 25.4606 4.634 25.4606 4.226C25.4606 3.506 25.2446 2.948 24.8126 2.552C24.3926 2.144 23.8226 1.94 23.1026 1.94C22.3826 1.94 21.7706 2.15 21.2666 2.57C20.7626 2.978 20.4146 3.56 20.2226 4.316L18.6206 3.902C18.8486 2.822 19.3706 1.964 20.1866 1.328C21.0026 0.691999 21.9746 0.373999 23.1026 0.373999C23.9066 0.373999 24.6206 0.536 25.2446 0.86C25.8806 1.172 26.3726 1.616 26.7206 2.192C27.0686 2.756 27.2426 3.404 27.2426 4.136C27.2426 4.844 27.0326 5.54 26.6126 6.224C26.2046 6.896 25.4966 7.778 24.4886 8.87L21.1766 12.47H27.5306V14H18.7286V12.776ZM34.706 14.216C33.65 14.216 32.72 13.928 31.916 13.352C31.112 12.776 30.488 11.966 30.044 10.922C29.6 9.866 29.378 8.654 29.378 7.286C29.378 5.918 29.6 4.712 30.044 3.668C30.488 2.624 31.106 1.814 31.898 1.238C32.702 0.661999 33.632 0.373999 34.688 0.373999C35.744 0.373999 36.674 0.661999 37.478 1.238C38.282 1.814 38.906 2.624 39.35 3.668C39.794 4.712 40.016 5.918 40.016 7.286C40.016 8.654 39.794 9.866 39.35 10.922C38.906 11.966 38.282 12.776 37.478 13.352C36.686 13.928 35.762 14.216 34.706 14.216ZM31.142 7.286C31.142 8.342 31.286 9.272 31.574 10.076C31.874 10.868 32.294 11.486 32.834 11.93C33.374 12.362 33.998 12.578 34.706 12.578C35.414 12.578 36.032 12.362 36.56 11.93C37.1 11.486 37.514 10.868 37.802 10.076C38.102 9.272 38.252 8.342 38.252 7.286C38.252 6.23 38.102 5.306 37.802 4.514C37.514 3.722 37.1 3.11 36.56 2.678C36.02 2.234 35.396 2.012 34.688 2.012C33.98 2.012 33.356 2.234 32.816 2.678C32.288 3.11 31.874 3.722 31.574 4.514C31.286 5.306 31.142 6.23 31.142 7.286ZM41.8093 12.776L45.5173 8.762L45.8413 8.42C46.6093 7.592 47.1613 6.974 47.4973 6.566C47.8453 6.146 48.1033 5.756 48.2713 5.396C48.4513 5.024 48.5413 4.634 48.5413 4.226C48.5413 3.506 48.3253 2.948 47.8933 2.552C47.4733 2.144 46.9033 1.94 46.1833 1.94C45.4633 1.94 44.8513 2.15 44.3473 2.57C43.8433 2.978 43.4953 3.56 43.3033 4.316L41.7013 3.902C41.9293 2.822 42.4513 1.964 43.2673 1.328C44.0833 0.691999 45.0553 0.373999 46.1833 0.373999C46.9873 0.373999 47.7013 0.536 48.3253 0.86C48.9613 1.172 49.4533 1.616 49.8013 2.192C50.1493 2.756 50.3233 3.404 50.3233 4.136C50.3233 4.844 50.1133 5.54 49.6933 6.224C49.2853 6.896 48.5773 7.778 47.5693 8.87L44.2573 12.47H50.6113V14H41.8093V12.776ZM57.7867 14.216C56.7307 14.216 55.8007 13.928 54.9967 13.352C54.1927 12.776 53.5687 11.966 53.1247 10.922C52.6807 9.866 52.4587 8.654 52.4587 7.286C52.4587 5.918 52.6807 4.712 53.1247 3.668C53.5687 2.624 54.1867 1.814 54.9787 1.238C55.7827 0.661999 56.7127 0.373999 57.7687 0.373999C58.8247 0.373999 59.7547 0.661999 60.5587 1.238C61.3627 1.814 61.9867 2.624 62.4307 3.668C62.8747 4.712 63.0967 5.918 63.0967 7.286C63.0967 8.654 62.8747 9.866 62.4307 10.922C61.9867 11.966 61.3627 12.776 60.5587 13.352C59.7667 13.928 58.8427 14.216 57.7867 14.216ZM54.2227 7.286C54.2227 8.342 54.3667 9.272 54.6547 10.076C54.9547 10.868 55.3747 11.486 55.9147 11.93C56.4547 12.362 57.0787 12.578 57.7867 12.578C58.4947 12.578 59.1127 12.362 59.6407 11.93C60.1807 11.486 60.5947 10.868 60.8827 10.076C61.1827 9.272 61.3327 8.342 61.3327 7.286C61.3327 6.23 61.1827 5.306 60.8827 4.514C60.5947 3.722 60.1807 3.11 59.6407 2.678C59.1007 2.234 58.4767 2.012 57.7687 2.012C57.0607 2.012 56.4367 2.234 55.8967 2.678C55.3687 3.11 54.9547 3.722 54.6547 4.514C54.3667 5.306 54.2227 6.23 54.2227 7.286ZM68.1635 0.589999H76.6595V2.21H69.9275V6.548H76.0295V8.168H69.9275V14H68.1635V0.589999ZM78.0996 0.373999H79.7736V14H78.0996V0.373999ZM86.6191 14.216C85.6951 14.216 84.8491 14 84.0811 13.568C83.3251 13.124 82.7251 12.518 82.2811 11.75C81.8371 10.97 81.6151 10.1 81.6151 9.14C81.6151 8.192 81.8311 7.334 82.2631 6.566C82.7071 5.786 83.3071 5.18 84.0631 4.748C84.8311 4.304 85.6831 4.082 86.6191 4.082C87.5431 4.082 88.3831 4.304 89.1391 4.748C89.9071 5.18 90.5071 5.78 90.9391 6.548C91.3831 7.316 91.6051 8.18 91.6051 9.14C91.6051 10.112 91.3831 10.982 90.9391 11.75C90.4951 12.518 89.8891 13.124 89.1211 13.568C88.3651 14 87.5311 14.216 86.6191 14.216ZM83.3791 9.14C83.3791 9.788 83.5171 10.376 83.7931 10.904C84.0811 11.432 84.4711 11.846 84.9631 12.146C85.4671 12.446 86.0191 12.596 86.6191 12.596C87.2071 12.596 87.7471 12.446 88.2391 12.146C88.7311 11.846 89.1151 11.432 89.3911 10.904C89.6791 10.376 89.8231 9.788 89.8231 9.14C89.8231 8.492 89.6791 7.91 89.3911 7.394C89.1151 6.866 88.7311 6.452 88.2391 6.152C87.7471 5.852 87.2071 5.702 86.6191 5.702C86.0191 5.702 85.4671 5.852 84.9631 6.152C84.4711 6.452 84.0811 6.866 83.7931 7.394C83.5171 7.91 83.3791 8.492 83.3791 9.14ZM92.1546 4.298H94.0086L96.3306 11.408L98.5986 4.298H100.183L102.451 11.408L104.791 4.298H106.627L103.297 14H101.695L99.3906 6.692L97.0866 14H95.4846L92.1546 4.298ZM112.786 14.216C112.078 14.216 111.43 14.078 110.842 13.802C110.254 13.514 109.774 13.112 109.402 12.596V14H107.764V0.373999H109.438V5.612C109.822 5.132 110.302 4.76 110.878 4.496C111.466 4.22 112.108 4.082 112.804 4.082C113.704 4.082 114.52 4.304 115.252 4.748C115.984 5.192 116.56 5.804 116.98 6.584C117.4 7.352 117.61 8.21 117.61 9.158C117.61 10.106 117.4 10.964 116.98 11.732C116.56 12.5 115.984 13.106 115.252 13.55C114.52 13.994 113.698 14.216 112.786 14.216ZM109.438 9.158C109.438 9.806 109.576 10.394 109.852 10.922C110.14 11.438 110.53 11.846 111.022 12.146C111.514 12.446 112.06 12.596 112.66 12.596C113.26 12.596 113.8 12.446 114.28 12.146C114.772 11.846 115.15 11.438 115.414 10.922C115.69 10.394 115.828 9.806 115.828 9.158C115.828 8.51 115.69 7.922 115.414 7.394C115.138 6.866 114.76 6.452 114.28 6.152C113.8 5.852 113.26 5.702 112.66 5.702C112.06 5.702 111.514 5.852 111.022 6.152C110.53 6.452 110.14 6.866 109.852 7.394C109.576 7.922 109.438 8.51 109.438 9.158ZM122.289 14.216C121.329 14.216 120.549 13.964 119.949 13.46C119.349 12.944 119.049 12.278 119.049 11.462C119.049 10.67 119.307 10.01 119.823 9.482C120.351 8.942 121.149 8.582 122.217 8.402L125.529 7.862V7.412C125.529 6.884 125.331 6.458 124.935 6.134C124.539 5.798 124.029 5.63 123.405 5.63C122.853 5.63 122.361 5.774 121.929 6.062C121.509 6.338 121.197 6.71 120.993 7.178L119.535 6.422C119.811 5.75 120.315 5.192 121.047 4.748C121.779 4.304 122.577 4.082 123.441 4.082C124.173 4.082 124.821 4.226 125.385 4.514C125.961 4.79 126.405 5.18 126.717 5.684C127.041 6.188 127.203 6.764 127.203 7.412V14H125.565V12.74C125.217 13.196 124.755 13.556 124.179 13.82C123.615 14.084 122.985 14.216 122.289 14.216ZM120.813 11.408C120.813 11.804 120.969 12.134 121.281 12.398C121.605 12.662 122.007 12.794 122.487 12.794C123.075 12.794 123.597 12.668 124.053 12.416C124.521 12.152 124.881 11.798 125.133 11.354C125.397 10.91 125.529 10.418 125.529 9.878V9.266L122.595 9.752C121.407 9.956 120.813 10.508 120.813 11.408ZM132.912 14.216C131.976 14.216 131.148 13.988 130.428 13.532C129.708 13.064 129.192 12.434 128.88 11.642L130.23 10.958C130.506 11.522 130.884 11.966 131.364 12.29C131.844 12.614 132.366 12.776 132.93 12.776C133.47 12.776 133.914 12.65 134.262 12.398C134.61 12.146 134.784 11.816 134.784 11.408C134.784 11.012 134.628 10.694 134.316 10.454C134.004 10.202 133.668 10.052 133.308 10.004L131.85 9.806C130.986 9.59 130.338 9.23 129.906 8.726C129.474 8.222 129.258 7.628 129.258 6.944C129.258 6.38 129.402 5.882 129.69 5.45C129.99 5.018 130.398 4.682 130.914 4.442C131.442 4.202 132.024 4.082 132.66 4.082C133.5 4.082 134.25 4.292 134.91 4.712C135.582 5.132 136.062 5.714 136.35 6.458L135.018 7.142C134.778 6.65 134.442 6.26 134.01 5.972C133.59 5.684 133.122 5.54 132.606 5.54C132.114 5.54 131.718 5.66 131.418 5.9C131.118 6.14 130.968 6.452 130.968 6.836C130.968 7.232 131.106 7.55 131.382 7.79C131.67 8.018 131.982 8.162 132.318 8.222L133.92 8.438C134.724 8.654 135.348 9.026 135.792 9.554C136.248 10.07 136.476 10.67 136.476 11.354C136.476 11.906 136.326 12.398 136.026 12.83C135.726 13.262 135.306 13.604 134.766 13.856C134.226 14.096 133.608 14.216 132.912 14.216ZM142.736 14.216C141.824 14.216 140.996 13.994 140.252 13.55C139.508 13.106 138.926 12.5 138.506 11.732C138.086 10.952 137.876 10.082 137.876 9.122C137.876 8.162 138.08 7.298 138.488 6.53C138.908 5.762 139.472 5.162 140.18 4.73C140.9 4.298 141.704 4.082 142.592 4.082C143.516 4.082 144.32 4.298 145.004 4.73C145.7 5.162 146.228 5.738 146.588 6.458C146.96 7.166 147.146 7.928 147.146 8.744C147.146 9.02 147.116 9.32 147.056 9.644H139.64C139.664 10.256 139.82 10.79 140.108 11.246C140.396 11.702 140.768 12.056 141.224 12.308C141.692 12.56 142.202 12.686 142.754 12.686C143.93 12.686 144.836 12.152 145.472 11.084L146.876 11.804C146.564 12.5 146.036 13.076 145.292 13.532C144.548 13.988 143.696 14.216 142.736 14.216ZM145.328 8.204C145.304 7.448 145.028 6.824 144.5 6.332C143.984 5.828 143.348 5.576 142.592 5.576C141.848 5.576 141.206 5.816 140.666 6.296C140.126 6.764 139.796 7.4 139.676 8.204H145.328ZM150.534 14C150.246 14 150 13.904 149.796 13.712C149.604 13.508 149.508 13.256 149.508 12.956C149.508 12.656 149.604 12.41 149.796 12.218C150 12.014 150.246 11.912 150.534 11.912C150.822 11.912 151.062 12.014 151.254 12.218C151.446 12.41 151.542 12.656 151.542 12.956C151.542 13.256 151.446 13.508 151.254 13.712C151.074 13.904 150.834 14 150.534 14ZM157.27 0.589999H162.004C162.892 0.589999 163.672 0.757999 164.344 1.094C165.028 1.43 165.556 1.91 165.928 2.534C166.3 3.158 166.486 3.89 166.486 4.73C166.486 5.57 166.3 6.302 165.928 6.926C165.556 7.55 165.028 8.03 164.344 8.366C163.672 8.702 162.892 8.87 162.004 8.87H159.034V14H157.27V0.589999ZM162.058 7.25C162.862 7.25 163.504 7.022 163.984 6.566C164.464 6.11 164.704 5.498 164.704 4.73C164.704 3.962 164.464 3.35 163.984 2.894C163.504 2.438 162.862 2.21 162.058 2.21H159.034V7.25H162.058ZM172.57 14.216C171.646 14.216 170.8 14 170.032 13.568C169.276 13.124 168.676 12.518 168.232 11.75C167.788 10.97 167.566 10.1 167.566 9.14C167.566 8.192 167.782 7.334 168.214 6.566C168.658 5.786 169.258 5.18 170.014 4.748C170.782 4.304 171.634 4.082 172.57 4.082C173.494 4.082 174.334 4.304 175.09 4.748C175.858 5.18 176.458 5.78 176.89 6.548C177.334 7.316 177.556 8.18 177.556 9.14C177.556 10.112 177.334 10.982 176.89 11.75C176.446 12.518 175.84 13.124 175.072 13.568C174.316 14 173.482 14.216 172.57 14.216ZM169.33 9.14C169.33 9.788 169.468 10.376 169.744 10.904C170.032 11.432 170.422 11.846 170.914 12.146C171.418 12.446 171.97 12.596 172.57 12.596C173.158 12.596 173.698 12.446 174.19 12.146C174.682 11.846 175.066 11.432 175.342 10.904C175.63 10.376 175.774 9.788 175.774 9.14C175.774 8.492 175.63 7.91 175.342 7.394C175.066 6.866 174.682 6.452 174.19 6.152C173.698 5.852 173.158 5.702 172.57 5.702C171.97 5.702 171.418 5.852 170.914 6.152C170.422 6.452 170.032 6.866 169.744 7.394C169.468 7.91 169.33 8.492 169.33 9.14ZM178.106 4.298H179.96L182.282 11.408L184.55 4.298H186.134L188.402 11.408L190.742 4.298H192.578L189.248 14H187.646L185.342 6.692L183.038 14H181.436L178.106 4.298ZM198.003 14.216C197.091 14.216 196.263 13.994 195.519 13.55C194.775 13.106 194.193 12.5 193.773 11.732C193.353 10.952 193.143 10.082 193.143 9.122C193.143 8.162 193.347 7.298 193.755 6.53C194.175 5.762 194.739 5.162 195.447 4.73C196.167 4.298 196.971 4.082 197.859 4.082C198.783 4.082 199.587 4.298 200.271 4.73C200.967 5.162 201.495 5.738 201.855 6.458C202.227 7.166 202.413 7.928 202.413 8.744C202.413 9.02 202.383 9.32 202.323 9.644H194.907C194.931 10.256 195.087 10.79 195.375 11.246C195.663 11.702 196.035 12.056 196.491 12.308C196.959 12.56 197.469 12.686 198.021 12.686C199.197 12.686 200.103 12.152 200.739 11.084L202.143 11.804C201.831 12.5 201.303 13.076 200.559 13.532C199.815 13.988 198.963 14.216 198.003 14.216ZM200.595 8.204C200.571 7.448 200.295 6.824 199.767 6.332C199.251 5.828 198.615 5.576 197.859 5.576C197.115 5.576 196.473 5.816 195.933 6.296C195.393 6.764 195.063 7.4 194.943 8.204H200.595ZM204.236 4.298H205.874V5.45C206.378 4.61 207.236 4.19 208.448 4.19H209.042V5.774H208.196C207.5 5.774 206.942 5.99 206.522 6.422C206.114 6.854 205.91 7.454 205.91 8.222V14H204.236V4.298ZM214.633 14.216C213.721 14.216 212.893 13.994 212.149 13.55C211.405 13.106 210.823 12.5 210.403 11.732C209.983 10.952 209.773 10.082 209.773 9.122C209.773 8.162 209.977 7.298 210.385 6.53C210.805 5.762 211.369 5.162 212.077 4.73C212.797 4.298 213.601 4.082 214.489 4.082C215.413 4.082 216.217 4.298 216.901 4.73C217.597 5.162 218.125 5.738 218.485 6.458C218.857 7.166 219.043 7.928 219.043 8.744C219.043 9.02 219.013 9.32 218.953 9.644H211.537C211.561 10.256 211.717 10.79 212.005 11.246C212.293 11.702 212.665 12.056 213.121 12.308C213.589 12.56 214.099 12.686 214.651 12.686C215.827 12.686 216.733 12.152 217.369 11.084L218.773 11.804C218.461 12.5 217.933 13.076 217.189 13.532C216.445 13.988 215.593 14.216 214.633 14.216ZM217.225 8.204C217.201 7.448 216.925 6.824 216.397 6.332C215.881 5.828 215.245 5.576 214.489 5.576C213.745 5.576 213.103 5.816 212.563 6.296C212.023 6.764 211.693 7.4 211.573 8.204H217.225ZM225.276 14.216C224.376 14.216 223.56 13.994 222.828 13.55C222.096 13.106 221.52 12.5 221.1 11.732C220.68 10.964 220.47 10.106 220.47 9.158C220.47 8.21 220.68 7.352 221.1 6.584C221.52 5.804 222.096 5.192 222.828 4.748C223.56 4.304 224.376 4.082 225.276 4.082C225.984 4.082 226.62 4.214 227.184 4.478C227.76 4.742 228.24 5.114 228.624 5.594V0.373999H230.316V14H228.678V12.578C228.318 13.094 227.838 13.496 227.238 13.784C226.65 14.072 225.996 14.216 225.276 14.216ZM222.234 9.158C222.234 9.806 222.372 10.394 222.648 10.922C222.924 11.438 223.302 11.846 223.782 12.146C224.274 12.446 224.82 12.596 225.42 12.596C226.02 12.596 226.56 12.446 227.04 12.146C227.532 11.846 227.916 11.438 228.192 10.922C228.48 10.394 228.624 9.806 228.624 9.158C228.624 8.51 228.48 7.922 228.192 7.394C227.916 6.866 227.532 6.452 227.04 6.152C226.56 5.852 226.02 5.702 225.42 5.702C224.82 5.702 224.274 5.852 223.782 6.152C223.302 6.452 222.924 6.866 222.648 7.394C222.372 7.922 222.234 8.51 222.234 9.158ZM240.32 14.216C239.612 14.216 238.964 14.078 238.376 13.802C237.788 13.514 237.308 13.112 236.936 12.596V14H235.298V0.373999H236.972V5.612C237.356 5.132 237.836 4.76 238.412 4.496C239 4.22 239.642 4.082 240.338 4.082C241.238 4.082 242.054 4.304 242.786 4.748C243.518 5.192 244.094 5.804 244.514 6.584C244.934 7.352 245.144 8.21 245.144 9.158C245.144 10.106 244.934 10.964 244.514 11.732C244.094 12.5 243.518 13.106 242.786 13.55C242.054 13.994 241.232 14.216 240.32 14.216ZM236.972 9.158C236.972 9.806 237.11 10.394 237.386 10.922C237.674 11.438 238.064 11.846 238.556 12.146C239.048 12.446 239.594 12.596 240.194 12.596C240.794 12.596 241.334 12.446 241.814 12.146C242.306 11.846 242.684 11.438 242.948 10.922C243.224 10.394 243.362 9.806 243.362 9.158C243.362 8.51 243.224 7.922 242.948 7.394C242.672 6.866 242.294 6.452 241.814 6.152C241.334 5.852 240.794 5.702 240.194 5.702C239.594 5.702 239.048 5.852 238.556 6.152C238.064 6.452 237.674 6.866 237.386 7.394C237.11 7.922 236.972 8.51 236.972 9.158ZM249.557 13.982L245.705 4.298H247.523L250.475 11.876L253.409 4.298H255.263L249.899 17.6H248.045L249.557 13.982Z" fill="black" fill-opacity="0.6"/>
<path d="M258.046 0.589999H259.9L262.834 11.606L265.894 0.589999H267.748L270.772 11.57L273.724 0.589999H275.578L271.816 14H269.854L266.812 3.092L263.77 14H261.808L258.046 0.589999ZM280.492 14.216C279.58 14.216 278.752 13.994 278.008 13.55C277.264 13.106 276.682 12.5 276.262 11.732C275.842 10.952 275.632 10.082 275.632 9.122C275.632 8.162 275.836 7.298 276.244 6.53C276.664 5.762 277.228 5.162 277.936 4.73C278.656 4.298 279.46 4.082 280.348 4.082C281.272 4.082 282.076 4.298 282.76 4.73C283.456 5.162 283.984 5.738 284.344 6.458C284.716 7.166 284.902 7.928 284.902 8.744C284.902 9.02 284.872 9.32 284.812 9.644H277.396C277.42 10.256 277.576 10.79 277.864 11.246C278.152 11.702 278.524 12.056 278.98 12.308C279.448 12.56 279.958 12.686 280.51 12.686C281.686 12.686 282.592 12.152 283.228 11.084L284.632 11.804C284.32 12.5 283.792 13.076 283.048 13.532C282.304 13.988 281.452 14.216 280.492 14.216ZM283.084 8.204C283.06 7.448 282.784 6.824 282.256 6.332C281.74 5.828 281.104 5.576 280.348 5.576C279.604 5.576 278.962 5.816 278.422 6.296C277.882 6.764 277.552 7.4 277.432 8.204H283.084ZM291.747 14.216C291.039 14.216 290.391 14.078 289.803 13.802C289.215 13.514 288.735 13.112 288.363 12.596V14H286.725V0.373999H288.399V5.612C288.783 5.132 289.263 4.76 289.839 4.496C290.427 4.22 291.069 4.082 291.765 4.082C292.665 4.082 293.481 4.304 294.213 4.748C294.945 5.192 295.521 5.804 295.941 6.584C296.361 7.352 296.571 8.21 296.571 9.158C296.571 10.106 296.361 10.964 295.941 11.732C295.521 12.5 294.945 13.106 294.213 13.55C293.481 13.994 292.659 14.216 291.747 14.216ZM288.399 9.158C288.399 9.806 288.537 10.394 288.813 10.922C289.101 11.438 289.491 11.846 289.983 12.146C290.475 12.446 291.021 12.596 291.621 12.596C292.221 12.596 292.761 12.446 293.241 12.146C293.733 11.846 294.111 11.438 294.375 10.922C294.651 10.394 294.789 9.806 294.789 9.158C294.789 8.51 294.651 7.922 294.375 7.394C294.099 6.866 293.721 6.452 293.241 6.152C292.761 5.852 292.221 5.702 291.621 5.702C291.021 5.702 290.475 5.852 289.983 6.152C289.491 6.452 289.101 6.866 288.813 7.394C288.537 7.922 288.399 8.51 288.399 9.158ZM299.432 5.9H297.578V4.298H299.432V3.614C299.432 2.942 299.582 2.36 299.882 1.868C300.182 1.376 300.584 1.004 301.088 0.751999C301.604 0.499999 302.18 0.373999 302.816 0.373999C303.14 0.373999 303.422 0.403999 303.662 0.463999V1.958C303.482 1.922 303.266 1.904 303.014 1.904C301.754 1.904 301.124 2.474 301.124 3.614V4.298H305.552V0.373999H307.226V14H305.552V5.9H301.124V14H299.432V5.9ZM314.062 14.216C313.138 14.216 312.292 14 311.524 13.568C310.768 13.124 310.168 12.518 309.724 11.75C309.28 10.97 309.058 10.1 309.058 9.14C309.058 8.192 309.274 7.334 309.706 6.566C310.15 5.786 310.75 5.18 311.506 4.748C312.274 4.304 313.126 4.082 314.062 4.082C314.986 4.082 315.826 4.304 316.582 4.748C317.35 5.18 317.95 5.78 318.382 6.548C318.826 7.316 319.048 8.18 319.048 9.14C319.048 10.112 318.826 10.982 318.382 11.75C317.938 12.518 317.332 13.124 316.564 13.568C315.808 14 314.974 14.216 314.062 14.216ZM310.822 9.14C310.822 9.788 310.96 10.376 311.236 10.904C311.524 11.432 311.914 11.846 312.406 12.146C312.91 12.446 313.462 12.596 314.062 12.596C314.65 12.596 315.19 12.446 315.682 12.146C316.174 11.846 316.558 11.432 316.834 10.904C317.122 10.376 317.266 9.788 317.266 9.14C317.266 8.492 317.122 7.91 316.834 7.394C316.558 6.866 316.174 6.452 315.682 6.152C315.19 5.852 314.65 5.702 314.062 5.702C313.462 5.702 312.91 5.852 312.406 6.152C311.914 6.452 311.524 6.866 311.236 7.394C310.96 7.91 310.822 8.492 310.822 9.14ZM319.597 4.298H321.451L323.773 11.408L326.041 4.298H327.625L329.893 11.408L332.233 4.298H334.069L330.739 14H329.137L326.833 6.692L324.529 14H322.927L319.597 4.298Z" fill="#FF7967"/>
</svg>
